<svg xmlns="http://www.w3.org/2000/svg" width="241" height="91" aria-label="logo_betu_shapes" viewBox="0 0 241 91">
	<g fill="none">
		<path fill="#000" d="M120.7 60.4v-30h120V.4H.7v90h240v-30z"/>
		<path fill="#FFF" d="M137.05 69.71c2.74 0 4.58 2.11 4.58 5.43 0 3.28-1.86 5.42-4.56 5.42a3.5 3.5 0 0 1-3-1.46h-.2v5.8h-3.74V69.97h3.74v1.2h.2a3.44 3.44 0 0 1 2.98-1.46zm58.38-.05c2.86 0 4.98 1.34 4.98 3.46h-3.32c-.02-.72-.7-1.2-1.66-1.2-.84 0-1.44.38-1.44.94 0 .78 1.22.82 2.6.98 1.88.2 4.24.66 4.24 3.1 0 2.3-2.02 3.7-5.3 3.7-3.1 0-5.04-1.42-5.04-3.74h3.18c0 .88.76 1.46 1.94 1.46.88 0 1.5-.38 1.5-1 0-.74-.88-.86-1.96-.96-1.86-.18-4.6-.34-4.6-3.2 0-2.18 1.94-3.54 4.88-3.54zM81.2 65.38V80.3h-3.74v-1.2h-.2a3.44 3.44 0 0 1-2.98 1.46c-2.74 0-4.58-2.1-4.58-5.42 0-3.28 1.86-5.42 4.56-5.42a3.5 3.5 0 0 1 3 1.46h.2v-5.8h3.74zm84.56 4.34c3.4 0 5.64 2.12 5.64 5.42 0 .3-.02.82-.06 1.02h-7.54c.24 1.12 1 1.82 2.12 1.82.9 0 1.54-.46 1.86-1.12l3.22.58c-.52 1.94-2.64 3.12-5.28 3.12-3.42 0-5.78-2.14-5.78-5.46 0-3.28 2.4-5.38 5.82-5.38zM227 66.76v3.22h2.16v2.66H227v3.76c0 .8.48 1.34 1.22 1.34.28 0 .68-.06 1-.14v2.6a7.5 7.5 0 0 1-2.26.36c-2.26 0-3.72-1.6-3.72-3.98v-3.94h-1.32v-2.66h1.46l.68-3.22H227zM13.86 65.37v5.8h.2a3.5 3.5 0 0 1 3-1.46c2.7 0 4.56 2.14 4.56 5.42 0 3.32-1.84 5.42-4.58 5.42a3.41 3.41 0 0 1-2.98-1.45h-.2v1.2h-3.74V65.37h3.74zm30.24 4.61v5.74c0 1 .56 1.7 1.44 1.7.88 0 1.56-.72 1.56-1.76v-5.68h3.74V80.3H47.1v-1.52h-.2c-.82 1.22-1.68 1.76-2.9 1.76-2.14 0-3.64-1.72-3.64-4.12v-6.44h3.74zm61.56-.26c3.06 0 5.08 1.48 5.08 3.8v6.78h-3.76v-1.22h-.2c-.58.96-1.82 1.46-3.16 1.46-2.04 0-3.44-1.08-3.44-2.96 0-2 1.62-3.06 5-3.52l1.8-.22v-.46c0-.76-.5-1.28-1.36-1.28-.82 0-1.4.52-1.4 1.4h-3.62c0-2.3 1.98-3.78 5.06-3.78zm1.32 6.1l-1.66.24c-1.1.14-1.54.56-1.54 1.16 0 .64.48 1.06 1.3 1.06 1.12 0 1.9-.78 1.9-1.84v-.62zm-31.44-2.96c-1.22 0-2.08.98-2.08 2.28 0 1.3.86 2.28 2.08 2.28 1.2 0 2.08-.98 2.08-2.28 0-1.3-.88-2.28-2.08-2.28zm60.24 0c-1.2 0-2.08.98-2.08 2.28 0 1.3.88 2.28 2.08 2.28 1.22 0 2.08-.98 2.08-2.28 0-1.3-.86-2.28-2.08-2.28zm-120 0c-1.2 0-2.08.98-2.08 2.28 0 1.3.88 2.28 2.08 2.28 1.22 0 2.08-.98 2.08-2.28 0-1.3-.86-2.28-2.08-2.28zm149.9-.56c-1.04 0-1.72.72-1.92 1.86h3.86c-.1-1.02-.88-1.86-1.94-1.86zM81.2 35.38V50.3h-3.74v-1.2h-.2a3.44 3.44 0 0 1-2.98 1.46c-2.74 0-4.58-2.1-4.58-5.42 0-3.28 1.86-5.42 4.56-5.42a3.5 3.5 0 0 1 3 1.46h.2v-5.8h3.74zm24.56 4.34c3.4 0 5.64 2.12 5.64 5.42 0 .3-.02.82-.06 1.02h-7.54c.24 1.12 1 1.82 2.12 1.82.9 0 1.54-.46 1.86-1.12l3.22.58c-.52 1.94-2.64 3.12-5.28 3.12-3.42 0-5.78-2.14-5.78-5.46 0-3.28 2.4-5.38 5.82-5.38zm-89.95 0c2.96 0 5.12 1.54 5.44 4.12l-3.46.44a1.98 1.98 0 0 0-1.92-1.56c-1.18 0-2.06 1-2.06 2.42s.86 2.42 2.04 2.42c.94 0 1.74-.64 1.94-1.54l3.46.42c-.34 2.58-2.5 4.12-5.44 4.12-3.38 0-5.74-2.14-5.74-5.42 0-3.32 2.3-5.42 5.74-5.42zm29.86 0c3.54 0 5.82 2.06 5.82 5.42 0 3.38-2.28 5.42-5.82 5.42-3.56 0-5.84-2.06-5.84-5.42 0-3.38 2.26-5.42 5.84-5.42zm29.87 3.14c-1.22 0-2.08.98-2.08 2.28 0 1.3.86 2.28 2.08 2.28 1.2 0 2.08-.98 2.08-2.28 0-1.3-.88-2.28-2.08-2.28zm-29.87 0c-1.24 0-2.08.94-2.08 2.28 0 1.34.84 2.28 2.08 2.28 1.22 0 2.08-.94 2.08-2.28 0-1.34-.86-2.28-2.08-2.28zm60.01-.56c-1.04 0-1.72.72-1.92 1.86h3.86c-.1-1.02-.88-1.86-1.94-1.86zM15.81 10.72c2.96 0 5.12 1.54 5.44 4.12l-3.46.44a1.98 1.98 0 0 0-1.92-1.56c-1.18 0-2.06 1-2.06 2.42s.86 2.42 2.04 2.42c.94 0 1.74-.64 1.94-1.54l3.46.42c-.34 2.58-2.5 4.12-5.44 4.12-3.38 0-5.74-2.14-5.74-5.42 0-3.32 2.3-5.42 5.74-5.42zm209.95 0c3.4 0 5.64 2.12 5.64 5.42 0 .3-.02.82-.06 1.02h-7.54c.24 1.12 1 1.82 2.12 1.82.9 0 1.54-.46 1.86-1.12l3.22.58c-.52 1.94-2.64 3.12-5.28 3.12-3.42 0-5.78-2.14-5.78-5.46 0-3.28 2.4-5.38 5.82-5.38zM137 7.76v3.22h2.16v2.66H137v3.76c0 .8.48 1.34 1.22 1.34.28 0 .68-.06 1-.14v2.6a7.5 7.5 0 0 1-2.26.36c-2.26 0-3.72-1.6-3.72-3.98v-3.94h-1.32v-2.66h1.46l.68-3.22H137zm-61.24 2.96c3.4 0 5.64 2.12 5.64 5.42 0 .3-.02.82-.06 1.02H73.8c.24 1.12 1 1.82 2.12 1.82.9 0 1.54-.46 1.86-1.12l3.22.58c-.52 1.94-2.64 3.12-5.28 3.12-3.42 0-5.78-2.14-5.78-5.46 0-3.28 2.4-5.38 5.82-5.38zm29.9 0c3.06 0 5.08 1.48 5.08 3.8v6.78h-3.76v-1.22h-.2c-.58.96-1.82 1.46-3.16 1.46-2.04 0-3.44-1.08-3.44-2.96 0-2 1.62-3.06 5-3.52l1.8-.22v-.46c0-.76-.5-1.28-1.36-1.28-.82 0-1.4.52-1.4 1.4h-3.62c0-2.3 1.98-3.78 5.06-3.78zm-57.13.06c.4 0 .82.1 1.14.26v3.32a5.06 5.06 0 0 0-1.8-.42c-1.14 0-1.94.9-1.94 2.24v5.12h-3.74V10.98h3.72v1.46h.22a2.63 2.63 0 0 1 2.4-1.66zm119 .2V21.3h-3.74V10.98h3.74zm25.97 0l2.06 7.22h.2l2.06-7.22h3.98l-3.4 10.32h-5.46l-3.4-10.32h3.96zm-86.52 5.84l-1.66.24c-1.1.14-1.54.56-1.54 1.16 0 .64.48 1.06 1.3 1.06 1.12 0 1.9-.78 1.9-1.84v-.62zm-31.3-3.52c-1.04 0-1.72.72-1.92 1.86h3.86c-.1-1.02-.88-1.86-1.94-1.86zm150 0c-1.04 0-1.72.72-1.92 1.86h3.86c-.1-1.02-.88-1.86-1.94-1.86zm-60.03-7.55c1.26 0 2.14.84 2.14 2.04 0 1.2-.88 2.06-2.14 2.06-1.22 0-2.12-.86-2.12-2.06 0-1.2.9-2.04 2.12-2.04z"/>
	</g>
</svg>
